<svg width="278" height="93" viewBox="0 0 278 93" fill="none" xmlns="http://www.w3.org/2000/svg">
<rect width="278" height="93" fill="white"/>
<path d="M265.621 27.4C267.434 27.4 269.141 28.4134 270.741 30.44C272.341 32.4134 273.141 34.1467 273.141 35.64C273.141 36.5467 272.714 37 271.861 37C271.274 37 270.367 36.5467 269.141 35.64C267.914 34.68 266.661 34.2 265.381 34.2C264.101 34.2 262.074 34.9467 259.301 36.44C256.581 37.9334 255.221 39.5067 255.221 41.16C255.221 42.3867 257.674 44.4934 262.581 47.48C264.447 48.6534 266.127 50.1734 267.621 52.04C269.167 53.8534 269.941 55.8267 269.941 57.96C269.941 60.04 268.474 62.0934 265.541 64.12C262.661 66.0934 259.274 67.08 255.381 67.08C251.541 67.08 248.127 66.1467 245.141 64.28C242.207 62.4134 240.741 60.6534 240.741 59C240.741 58.3067 240.901 57.7734 241.221 57.4C241.594 56.9734 242.047 56.76 242.581 56.76C243.114 56.76 243.861 57.1067 244.821 57.8C247.701 59.88 250.687 60.92 253.781 60.92C256.927 60.92 259.194 60.5734 260.581 59.88C261.967 59.1334 262.661 58.1734 262.661 57C262.661 55.7734 261.887 54.4934 260.341 53.16C258.794 51.7734 257.087 50.5467 255.221 49.48C253.407 48.4134 251.727 47.1067 250.181 45.56C248.634 44.0134 247.861 42.44 247.861 40.84C247.861 38.0134 250.074 35.08 254.501 32.04C258.981 28.9467 262.687 27.4 265.621 27.4Z" fill="#68D391"/>
<path d="M229.898 27.16C232.191 27.16 234.164 28.6266 235.818 31.56C237.524 34.4933 238.378 37.5333 238.378 40.68C238.378 43.7733 237.471 46.8933 235.658 50.04C233.844 53.1333 231.604 55.9066 228.938 58.36C226.271 60.8133 223.311 62.8666 220.058 64.52C216.858 66.12 213.898 66.92 211.178 66.92C210.111 66.92 209.098 66.7866 208.138 66.52C207.924 67.4266 207.551 69.0533 207.018 71.4C206.484 73.7466 206.031 75.6933 205.658 77.24C205.284 78.7866 204.858 80.44 204.378 82.2C203.418 85.8266 202.564 87.64 201.818 87.64C201.071 87.64 200.298 87.0533 199.498 85.88C198.644 84.76 198.218 83.7466 198.218 82.84C198.218 81.9333 199.071 78.04 200.778 71.16C205.898 50.4133 208.458 36.44 208.458 29.24C208.458 27.64 209.044 26.84 210.218 26.84C211.178 26.84 212.324 27.56 213.658 29C215.044 30.3866 215.738 31.9333 215.738 33.64C215.738 34.4933 215.631 35.4266 215.418 36.44C220.164 30.2533 224.991 27.16 229.898 27.16ZM210.378 60.68C213.204 60.68 216.244 59.72 219.498 57.8C222.804 55.88 225.604 53.3466 227.898 50.2C230.244 47 231.418 43.8266 231.418 40.68C231.418 36.2533 230.378 34.04 228.298 34.04C226.218 34.04 223.391 35.8266 219.818 39.4C216.298 42.9733 213.498 47.6133 211.418 53.32L209.578 60.68H210.378Z" fill="#68D391"/>
<path d="M192.742 29.64C192.955 28.7867 193.169 28.2 193.382 27.88C193.595 27.56 194.049 27.4 194.742 27.4C195.489 27.4 196.369 28.0934 197.382 29.48C198.449 30.8667 198.982 32.2 198.982 33.48C198.982 34.1734 197.809 38.28 195.462 45.8C193.115 53.32 191.302 59.2934 190.022 63.72C189.382 65.96 188.475 67.08 187.302 67.08C186.609 67.08 186.022 66.7867 185.542 66.2C185.062 65.6134 184.822 64.5467 184.822 63C184.822 61.4534 185.435 58.6534 186.662 54.6C184.422 58.2267 181.995 61.2134 179.382 63.56C176.769 65.9067 174.369 67.08 172.182 67.08C170.049 67.08 168.022 66.0667 166.102 64.04C164.182 62.0134 163.222 59.9334 163.222 57.8C163.222 52.7334 164.689 46.4134 167.622 38.84C170.609 31.2134 173.089 27.4 175.062 27.4C176.022 27.4 176.849 27.8534 177.542 28.76C178.289 29.6134 178.662 30.6 178.662 31.72C178.662 32.2 177.942 33.9334 176.502 36.92C175.062 39.8534 173.622 43.32 172.182 47.32C170.742 51.2667 170.022 54.7334 170.022 57.72C170.022 58.5734 170.289 59.2934 170.822 59.88C171.355 60.4134 171.995 60.68 172.742 60.68C174.769 60.68 177.169 58.8934 179.942 55.32C182.769 51.7467 185.329 47.5867 187.622 42.84C189.915 38.0934 191.622 33.6934 192.742 29.64Z" fill="#68D391"/>
<path d="M159.773 11.72C159.773 21.7467 157.693 34.76 153.533 50.76C150.866 61.64 148.999 67.08 147.932 67.08C147.186 67.08 146.306 66.4933 145.292 65.32C144.332 64.1467 143.853 63.24 143.853 62.6C143.853 61.96 144.626 58.6533 146.173 52.68C147.719 46.7067 149.266 39.3733 150.812 30.68C152.359 21.9333 153.133 14.0667 153.133 7.08C153.133 6.33333 153.239 5.8 153.452 5.48C153.666 5.16 154.119 5 154.812 5C155.506 5 156.493 5.77333 157.773 7.32C159.106 8.81333 159.773 10.28 159.773 11.72Z" fill="#68D391"/>
<path d="M121.235 59.08C121.235 60.0934 121.822 60.6 122.995 60.6C125.022 60.6 127.475 60.04 130.355 58.92C133.288 57.7467 134.915 57.16 135.235 57.16C136.195 57.16 136.675 57.6667 136.675 58.68C136.675 60.2267 135.075 62.0134 131.875 64.04C128.728 66.0667 125.848 67.08 123.235 67.08C120.675 67.08 118.542 66.3867 116.835 65C115.128 63.56 114.275 62.0934 114.275 60.6C114.275 59.1067 114.595 57.2134 115.235 54.92C115.875 52.5734 116.782 49.5067 117.955 45.72C119.182 41.88 120.142 38.7067 120.835 36.2C118.328 36.7867 116.648 37.08 115.795 37.08C114.942 37.08 114.088 36.6534 113.235 35.8C112.435 34.8934 112.035 34.04 112.035 33.24C112.035 31.96 115.502 30.7334 122.435 29.56C123.395 25.1334 123.875 21.2134 123.875 17.8C123.875 16.2 124.408 15.4 125.475 15.4C126.382 15.4 127.502 15.9867 128.835 17.16C130.168 18.28 130.835 19.56 130.835 21C130.835 22.44 130.382 24.9734 129.475 28.6C132.515 28.3334 134.942 28.2 136.755 28.2C139.955 28.2 141.555 28.8934 141.555 30.28C141.555 31.08 140.675 31.7467 138.915 32.28C137.208 32.8134 133.582 33.64 128.035 34.76C126.915 38.9734 125.502 43.8 123.795 49.24C122.088 54.6267 121.235 57.9067 121.235 59.08Z" fill="#68D391"/>
<path d="M101.279 29.64C101.493 28.7867 101.706 28.2 101.919 27.88C102.133 27.56 102.586 27.4 103.279 27.4C104.026 27.4 104.906 28.0934 105.919 29.48C106.986 30.8667 107.519 32.2 107.519 33.48C107.519 34.1734 106.346 38.28 103.999 45.8C101.653 53.32 99.8394 59.2934 98.5594 63.72C97.9194 65.96 97.0127 67.08 95.8394 67.08C95.1461 67.08 94.5594 66.7867 94.0794 66.2C93.5994 65.6134 93.3594 64.5467 93.3594 63C93.3594 61.4534 93.9727 58.6534 95.1994 54.6C92.9594 58.2267 90.5327 61.2134 87.9194 63.56C85.3061 65.9067 82.9061 67.08 80.7194 67.08C78.5861 67.08 76.5594 66.0667 74.6394 64.04C72.7194 62.0134 71.7594 59.9334 71.7594 57.8C71.7594 52.7334 73.2261 46.4134 76.1594 38.84C79.1461 31.2134 81.6261 27.4 83.5994 27.4C84.5594 27.4 85.3861 27.8534 86.0794 28.76C86.8261 29.6134 87.1994 30.6 87.1994 31.72C87.1994 32.2 86.4794 33.9334 85.0394 36.92C83.5994 39.8534 82.1594 43.32 80.7194 47.32C79.2794 51.2667 78.5594 54.7334 78.5594 57.72C78.5594 58.5734 78.8261 59.2934 79.3594 59.88C79.8927 60.4134 80.5327 60.68 81.2794 60.68C83.3061 60.68 85.7061 58.8934 88.4794 55.32C91.3061 51.7467 93.8661 47.5867 96.1594 42.84C98.4527 38.0934 100.159 33.6934 101.279 29.64Z" fill="#68D391"/>
<path d="M50.475 37.16L50.235 31.16C50.235 28.6534 50.8217 27.4 51.995 27.4C53.0084 27.4 53.9684 28.0667 54.875 29.4C55.835 30.68 56.315 32.2267 56.315 34.04C56.315 35.8 56.2617 37.1334 56.155 38.04C60.795 31 65.195 27.48 69.355 27.48C71.9684 27.48 73.275 28.12 73.275 29.4C73.275 30.04 72.9817 30.6267 72.395 31.16C71.8084 31.6934 70.875 32.3067 69.595 33C66.7684 34.2267 64.3684 36.12 62.395 38.68C60.475 41.1867 58.9017 44.04 57.675 47.24C56.4484 50.44 55.4617 53.1334 54.715 55.32C54.0217 57.5067 53.4884 59.2134 53.115 60.44C52.7417 61.6667 52.315 62.8667 51.835 64.04C50.9817 66.1734 49.995 67.24 48.875 67.24C47.9684 67.24 47.2217 66.7334 46.635 65.72C46.1017 64.6534 45.835 63.64 45.835 62.68C45.835 61.6667 46.2884 59.6934 47.195 56.76C49.3817 50.04 50.475 43.5067 50.475 37.16Z" fill="#68D391"/>
<path d="M16.28 43.24H16.12C16.0133 43.7733 15.48 45.9067 14.52 49.64C13.6133 53.3733 13.0267 55.8267 12.76 57C12.4933 58.12 12.2533 59.0267 12.04 59.72C11.88 60.4133 11.6933 61.2133 11.48 62.12C11.2667 62.9733 11.0533 63.6667 10.84 64.2C10.68 64.68 10.52 65.16 10.36 65.64C10.04 66.5467 9.72 67 9.4 67C8.70667 67 7.8 66.2533 6.68 64.76C5.56 63.2133 5 61.96 5 61C5 60.04 6.52 53.3733 9.56 41C12.6533 28.6267 14.2533 20.3867 14.36 16.28C14.36 15.48 14.5467 14.84 14.92 14.36C15.4533 13.24 17.0267 12.44 19.64 11.96C22.3067 11.48 26.1733 11.24 31.24 11.24C36.36 11.24 40.36 11.5067 43.24 12.04C46.1733 12.5733 47.64 13.32 47.64 14.28C47.64 14.92 47.1867 15.3733 46.28 15.64C45.3733 15.9067 44.5733 16.12 43.88 16.28C43.1867 16.3867 42.28 16.52 41.16 16.68C40.04 16.7867 39 16.8933 38.04 17C37.08 17.0533 35.8267 17.16 34.28 17.32C32.7867 17.48 31.4 17.64 30.12 17.8C28.84 17.9067 27.1067 18.0933 24.92 18.36C22.7333 18.6267 21.32 18.7867 20.68 18.84C20.7333 19 20.76 19.24 20.76 19.56C20.76 22.0667 19.72 27.8267 17.64 36.84C20.9467 37 24.4933 36.92 28.28 36.6C32.12 36.28 34.4667 36.12 35.32 36.12C37.3467 36.12 38.36 36.5467 38.36 37.4C38.36 39.0533 36.04 40.44 31.4 41.56C26.8133 42.68 21.7733 43.24 16.28 43.24Z" fill="#68D391"/>
</svg>
